<svg xmlns="http://www.w3.org/2000/svg" xmlns:xlink="http://www.w3.org/1999/xlink" viewBox="0 0 42 22" fill="rgb(34, 184, 207)"><path d="M4 0h33.556a4 4 0 014 4v14a4 4 0 01-4 4H4a4 4 0 01-4-4V4a4 4 0 014-4zm2.111 15.712h3.56c2.05 0 3.685-.862 3.685-2.787 0-1.254-.722-1.963-1.672-2.216v-.051c.76-.291 1.228-1.203 1.228-2.04 0-1.81-1.557-2.33-3.508-2.33H6.111v9.424zm2.267-5.687V8.01h.937c.95 0 1.394.279 1.394.95 0 .646-.43 1.064-1.394 1.064h-.937zm0 3.951v-2.28h1.127c1.102 0 1.647.305 1.647 1.077 0 .81-.557 1.203-1.647 1.203H8.378zm5.96 1.736h6.117v-1.9h-3.85V11.81h3.154v-1.9h-3.154V8.163h3.711V6.288h-5.978v9.424zm10.33.177c2.279 0 3.596-1.38 3.596-2.951 0-1.33-.696-2.115-1.862-2.584l-1.177-.469c-.836-.329-1.432-.532-1.432-1.05 0-.507.43-.786 1.128-.786.734 0 1.317.253 1.937.722l1.128-1.419c-.824-.823-1.976-1.24-3.065-1.24-2.002 0-3.42 1.266-3.42 2.849 0 1.368.924 2.191 1.912 2.584l1.204.506c.81.342 1.33.52 1.33 1.064 0 .507-.393.823-1.23.823-.746 0-1.62-.392-2.292-.962l-1.279 1.558c.975.899 2.293 1.355 3.521 1.355zm6.415-.177h2.267v-7.55h2.558V6.289h-7.37v1.875h2.545v7.549z"></path></svg>