<svg viewBox="0 0 43 16" xmlns="http://www.w3.org/2000/svg" xmlns:xlink="http://www.w3.org/1999/xlink" overflow="hidden">
<path d="M13.464 5.532V5.49c0-3.19-2.25-5.173-5.87-5.173H0v15.375h3.84v-4.735h2.646l3.17 4.732h4.513l-3.722-5.437c1.947-.854 3.017-2.516 3.017-4.72zM9.582 5.7c0 1.126-.823 2.092-2.201 2.092H3.84V3.547h3.479c1.034 0 2.263.607 2.263 2.112v.042zM20.012.317h-3.84v15.375h3.84V.317zM29.887.317h-7.066v15.375h7.066c4.723 0 7.12-3.233 7.12-7.686v-.042c0-4.432-2.397-7.647-7.12-7.647zm3.135 7.727c0 2.466-1.081 4.3-3.573 4.3H26.66V3.662h2.788c2.492 0 3.573 1.85 3.573 4.34v.042zM42.951.317h-3.84v15.375h3.84V.317z">
</path>
</svg>