<svg viewBox="0 0 85 16" xmlns="http://www.w3.org/2000/svg" xmlns:xlink="http://www.w3.org/1999/xlink" overflow="hidden">
<path d="M13.271 5.1H9.434C9.23 3.95 8.53 3.021 6.907 3.021c-1.354 0-2.234.587-2.234 1.58 0 .88.63 1.265 1.848 1.51l2.146.498c2.82.61 4.625 1.76 4.625 4.4 0 3.07-2.528 4.987-6.365 4.987-3.451 0-6.566-1.671-6.927-5.46h3.837c.249 1.353 1.399 2.233 3.203 2.233 1.354 0 2.166-.542 2.166-1.398 0-.542-.293-1.105-1.624-1.354l-2.527-.542C2.03 8.82.61 7.446.61 5.007.613 1.941 3.096 0 6.705 0c2.483 0 6.184.969 6.566 5.1zM19.41 6.453h6.815v3.25H19.41v2.664h7.787v3.319h-11.6V.338h11.6v3.318H19.41v2.797zM40.06 15.683H29.362V.338h3.813V12.32h6.883v3.363zM45.68 6.453h6.815v3.25H45.68v2.664h7.787v3.319h-11.6V.338h11.6v3.318H45.68v2.797zM66.711 9.321h3.926c-.495 3.97-3.52 6.679-7.695 6.679-4.625 0-8.124-3.363-8.124-7.988S58.314.024 62.942.024c4.175 0 7.2 2.708 7.695 6.678h-3.926c-.406-1.917-1.76-3.114-3.792-3.114-2.504 0-4.243 1.873-4.243 4.424 0 2.55 1.736 4.423 4.242 4.423 2.033 0 3.387-1.197 3.793-3.114zM79.71 3.745v11.938h-3.793V3.745h-4.895V.338h13.585v3.407H79.71z">
</path>
</svg>